<svg width="209" height="79" viewBox="0 0 209 79" fill="none" xmlns="http://www.w3.org/2000/svg">
<g filter="url(#filter0_d_13_231)">
<path d="M62.2344 65.3125C62.849 65.3125 63.401 65.1927 63.8906 64.9531C64.3906 64.7031 64.7917 64.3594 65.0938 63.9219C65.4062 63.4844 65.5781 62.9792 65.6094 62.4062H69.1562C69.1354 63.5 68.8125 64.4948 68.1875 65.3906C67.5625 66.2865 66.7344 67 65.7031 67.5312C64.6719 68.0521 63.5312 68.3125 62.2812 68.3125C60.9896 68.3125 59.8646 68.0938 58.9062 67.6562C57.9479 67.2083 57.151 66.5938 56.5156 65.8125C55.8802 65.0312 55.401 64.1302 55.0781 63.1094C54.7656 62.0885 54.6094 60.9948 54.6094 59.8281V59.2812C54.6094 58.1146 54.7656 57.0208 55.0781 56C55.401 54.9688 55.8802 54.0625 56.5156 53.2812C57.151 52.5 57.9479 51.8906 58.9062 51.4531C59.8646 51.0052 60.9844 50.7812 62.2656 50.7812C63.6198 50.7812 64.8073 51.0521 65.8281 51.5938C66.849 52.125 67.651 52.8698 68.2344 53.8281C68.8281 54.776 69.1354 55.8802 69.1562 57.1406H65.6094C65.5781 56.5156 65.4219 55.9531 65.1406 55.4531C64.8698 54.9427 64.4844 54.5365 63.9844 54.2344C63.4948 53.9323 62.9062 53.7812 62.2188 53.7812C61.4583 53.7812 60.8281 53.9375 60.3281 54.25C59.8281 54.5521 59.4375 54.9688 59.1562 55.5C58.875 56.0208 58.6719 56.6094 58.5469 57.2656C58.4323 57.9115 58.375 58.5833 58.375 59.2812V59.8281C58.375 60.526 58.4323 61.2031 58.5469 61.8594C58.6615 62.5156 58.8594 63.1042 59.1406 63.625C59.4323 64.1354 59.8281 64.5469 60.3281 64.8594C60.8281 65.1615 61.4635 65.3125 62.2344 65.3125ZM81.5781 64.6094V56.5469C81.5781 55.9427 81.4688 55.4219 81.25 54.9844C81.0312 54.5469 80.6979 54.2083 80.25 53.9688C79.8125 53.7292 79.2604 53.6094 78.5938 53.6094C77.9792 53.6094 77.4479 53.7135 77 53.9219C76.5521 54.1302 76.2031 54.4115 75.9531 54.7656C75.7031 55.1198 75.5781 55.5208 75.5781 55.9688H71.8281C71.8281 55.3021 71.9896 54.6562 72.3125 54.0312C72.6354 53.4062 73.1042 52.849 73.7188 52.3594C74.3333 51.8698 75.0677 51.4844 75.9219 51.2031C76.776 50.9219 77.7344 50.7812 78.7969 50.7812C80.0677 50.7812 81.1927 50.9948 82.1719 51.4219C83.1615 51.849 83.9375 52.4948 84.5 53.3594C85.0729 54.2135 85.3594 55.2865 85.3594 56.5781V64.0938C85.3594 64.8646 85.4115 65.5573 85.5156 66.1719C85.6302 66.776 85.7917 67.3021 86 67.75V68H82.1406C81.9635 67.5938 81.8229 67.0781 81.7188 66.4531C81.625 65.8177 81.5781 65.2031 81.5781 64.6094ZM82.125 57.7188L82.1562 60.0469H79.4531C78.7552 60.0469 78.1406 60.1146 77.6094 60.25C77.0781 60.375 76.6354 60.5625 76.2812 60.8125C75.9271 61.0625 75.6615 61.3646 75.4844 61.7188C75.3073 62.0729 75.2188 62.474 75.2188 62.9219C75.2188 63.3698 75.3229 63.7812 75.5312 64.1562C75.7396 64.5208 76.0417 64.8073 76.4375 65.0156C76.8438 65.224 77.3333 65.3281 77.9062 65.3281C78.6771 65.3281 79.349 65.1719 79.9219 64.8594C80.5052 64.5365 80.9635 64.1458 81.2969 63.6875C81.6302 63.2188 81.8073 62.776 81.8281 62.3594L83.0469 64.0312C82.9219 64.4583 82.7083 64.9167 82.4062 65.4062C82.1042 65.8958 81.7083 66.3646 81.2188 66.8125C80.7396 67.25 80.1615 67.6094 79.4844 67.8906C78.8177 68.1719 78.0469 68.3125 77.1719 68.3125C76.0677 68.3125 75.0833 68.0938 74.2188 67.6562C73.3542 67.2083 72.6771 66.6094 72.1875 65.8594C71.6979 65.099 71.4531 64.2396 71.4531 63.2812C71.4531 62.3854 71.6198 61.5938 71.9531 60.9062C72.2969 60.2083 72.7969 59.625 73.4531 59.1562C74.1198 58.6875 74.9323 58.3333 75.8906 58.0938C76.849 57.8438 77.9427 57.7188 79.1719 57.7188H82.125ZM93.0625 54.5312V68H89.2969V51.0938H92.8438L93.0625 54.5312ZM92.4531 58.9219L91.1719 58.9062C91.1719 57.7396 91.3177 56.6615 91.6094 55.6719C91.901 54.6823 92.3281 53.8229 92.8906 53.0938C93.4531 52.3542 94.151 51.7865 94.9844 51.3906C95.8281 50.9844 96.8021 50.7812 97.9062 50.7812C98.6771 50.7812 99.3802 50.8958 100.016 51.125C100.661 51.3438 101.219 51.6927 101.688 52.1719C102.167 52.651 102.531 53.2656 102.781 54.0156C103.042 54.7656 103.172 55.6719 103.172 56.7344V68H99.4062V57.0625C99.4062 56.2396 99.2812 55.5938 99.0312 55.125C98.7917 54.6562 98.4427 54.3229 97.9844 54.125C97.5365 53.9167 97 53.8125 96.375 53.8125C95.6667 53.8125 95.0625 53.9479 94.5625 54.2188C94.0729 54.4896 93.6719 54.8594 93.3594 55.3281C93.0469 55.7969 92.8177 56.3385 92.6719 56.9531C92.526 57.5677 92.4531 58.224 92.4531 58.9219ZM102.938 57.9219L101.172 58.3125C101.172 57.2917 101.312 56.3281 101.594 55.4219C101.885 54.5052 102.307 53.7031 102.859 53.0156C103.422 52.3177 104.115 51.7708 104.938 51.375C105.76 50.9792 106.703 50.7812 107.766 50.7812C108.63 50.7812 109.401 50.901 110.078 51.1406C110.766 51.3698 111.349 51.7344 111.828 52.2344C112.307 52.7344 112.672 53.3854 112.922 54.1875C113.172 54.9792 113.297 55.9375 113.297 57.0625V68H109.516V57.0469C109.516 56.1927 109.391 55.5312 109.141 55.0625C108.901 54.5938 108.557 54.2708 108.109 54.0938C107.661 53.9062 107.125 53.8125 106.5 53.8125C105.917 53.8125 105.401 53.9219 104.953 54.1406C104.516 54.349 104.146 54.6458 103.844 55.0312C103.542 55.4062 103.312 55.8385 103.156 56.3281C103.01 56.8177 102.938 57.349 102.938 57.9219ZM120.953 54.3438V74.5H117.188V51.0938H120.656L120.953 54.3438ZM131.969 59.3906V59.7188C131.969 60.9479 131.823 62.0885 131.531 63.1406C131.25 64.1823 130.828 65.0938 130.266 65.875C129.714 66.6458 129.031 67.2448 128.219 67.6719C127.406 68.099 126.469 68.3125 125.406 68.3125C124.354 68.3125 123.432 68.1198 122.641 67.7344C121.859 67.3385 121.198 66.7812 120.656 66.0625C120.115 65.3438 119.677 64.5 119.344 63.5312C119.021 62.5521 118.792 61.4792 118.656 60.3125V59.0469C118.792 57.8073 119.021 56.6823 119.344 55.6719C119.677 54.6615 120.115 53.7917 120.656 53.0625C121.198 52.3333 121.859 51.7708 122.641 51.375C123.422 50.9792 124.333 50.7812 125.375 50.7812C126.438 50.7812 127.38 50.9896 128.203 51.4062C129.026 51.8125 129.719 52.3958 130.281 53.1562C130.844 53.9062 131.266 54.8125 131.547 55.875C131.828 56.9271 131.969 58.099 131.969 59.3906ZM128.203 59.7188V59.3906C128.203 58.6094 128.13 57.8854 127.984 57.2188C127.839 56.5417 127.609 55.9479 127.297 55.4375C126.984 54.9271 126.583 54.5312 126.094 54.25C125.615 53.9583 125.036 53.8125 124.359 53.8125C123.693 53.8125 123.12 53.9271 122.641 54.1562C122.161 54.375 121.76 54.6823 121.438 55.0781C121.115 55.474 120.865 55.9375 120.688 56.4688C120.51 56.9896 120.385 57.5573 120.312 58.1719V61.2031C120.438 61.9531 120.651 62.6406 120.953 63.2656C121.255 63.8906 121.682 64.3906 122.234 64.7656C122.797 65.1302 123.516 65.3125 124.391 65.3125C125.068 65.3125 125.646 65.1667 126.125 64.875C126.604 64.5833 126.995 64.1823 127.297 63.6719C127.609 63.151 127.839 62.5521 127.984 61.875C128.13 61.1979 128.203 60.4792 128.203 59.7188ZM144.703 64.6094V56.5469C144.703 55.9427 144.594 55.4219 144.375 54.9844C144.156 54.5469 143.823 54.2083 143.375 53.9688C142.938 53.7292 142.385 53.6094 141.719 53.6094C141.104 53.6094 140.573 53.7135 140.125 53.9219C139.677 54.1302 139.328 54.4115 139.078 54.7656C138.828 55.1198 138.703 55.5208 138.703 55.9688H134.953C134.953 55.3021 135.115 54.6562 135.438 54.0312C135.76 53.4062 136.229 52.849 136.844 52.3594C137.458 51.8698 138.193 51.4844 139.047 51.2031C139.901 50.9219 140.859 50.7812 141.922 50.7812C143.193 50.7812 144.318 50.9948 145.297 51.4219C146.286 51.849 147.062 52.4948 147.625 53.3594C148.198 54.2135 148.484 55.2865 148.484 56.5781V64.0938C148.484 64.8646 148.536 65.5573 148.641 66.1719C148.755 66.776 148.917 67.3021 149.125 67.75V68H145.266C145.089 67.5938 144.948 67.0781 144.844 66.4531C144.75 65.8177 144.703 65.2031 144.703 64.6094ZM145.25 57.7188L145.281 60.0469H142.578C141.88 60.0469 141.266 60.1146 140.734 60.25C140.203 60.375 139.76 60.5625 139.406 60.8125C139.052 61.0625 138.786 61.3646 138.609 61.7188C138.432 62.0729 138.344 62.474 138.344 62.9219C138.344 63.3698 138.448 63.7812 138.656 64.1562C138.865 64.5208 139.167 64.8073 139.562 65.0156C139.969 65.224 140.458 65.3281 141.031 65.3281C141.802 65.3281 142.474 65.1719 143.047 64.8594C143.63 64.5365 144.089 64.1458 144.422 63.6875C144.755 63.2188 144.932 62.776 144.953 62.3594L146.172 64.0312C146.047 64.4583 145.833 64.9167 145.531 65.4062C145.229 65.8958 144.833 66.3646 144.344 66.8125C143.865 67.25 143.286 67.6094 142.609 67.8906C141.943 68.1719 141.172 68.3125 140.297 68.3125C139.193 68.3125 138.208 68.0938 137.344 67.6562C136.479 67.2083 135.802 66.6094 135.312 65.8594C134.823 65.099 134.578 64.2396 134.578 63.2812C134.578 62.3854 134.745 61.5938 135.078 60.9062C135.422 60.2083 135.922 59.625 136.578 59.1562C137.245 58.6875 138.057 58.3333 139.016 58.0938C139.974 57.8438 141.068 57.7188 142.297 57.7188H145.25ZM156.453 51.0938V68H152.672V51.0938H156.453ZM152.422 46.6562C152.422 46.0833 152.609 45.6094 152.984 45.2344C153.37 44.849 153.901 44.6562 154.578 44.6562C155.245 44.6562 155.771 44.849 156.156 45.2344C156.542 45.6094 156.734 46.0833 156.734 46.6562C156.734 47.2188 156.542 47.6875 156.156 48.0625C155.771 48.4375 155.245 48.625 154.578 48.625C153.901 48.625 153.37 48.4375 152.984 48.0625C152.609 47.6875 152.422 47.2188 152.422 46.6562ZM171.406 51.0938H174.828V67.5312C174.828 69.0521 174.505 70.3438 173.859 71.4062C173.214 72.4688 172.312 73.276 171.156 73.8281C170 74.3906 168.661 74.6719 167.141 74.6719C166.495 74.6719 165.776 74.5781 164.984 74.3906C164.203 74.2031 163.443 73.901 162.703 73.4844C161.974 73.0781 161.365 72.5417 160.875 71.875L162.641 69.6562C163.245 70.375 163.911 70.901 164.641 71.2344C165.37 71.5677 166.135 71.7344 166.938 71.7344C167.802 71.7344 168.536 71.5729 169.141 71.25C169.755 70.9375 170.229 70.474 170.562 69.8594C170.896 69.2448 171.062 68.4948 171.062 67.6094V54.9219L171.406 51.0938ZM159.922 59.7344V59.4062C159.922 58.125 160.078 56.9583 160.391 55.9062C160.703 54.8438 161.151 53.9323 161.734 53.1719C162.318 52.401 163.026 51.8125 163.859 51.4062C164.693 50.9896 165.635 50.7812 166.688 50.7812C167.781 50.7812 168.714 50.9792 169.484 51.375C170.266 51.7708 170.917 52.3385 171.438 53.0781C171.958 53.8073 172.365 54.6823 172.656 55.7031C172.958 56.7135 173.182 57.8385 173.328 59.0781V60.125C173.193 61.3333 172.964 62.4375 172.641 63.4375C172.318 64.4375 171.891 65.3021 171.359 66.0312C170.828 66.7604 170.172 67.3229 169.391 67.7188C168.62 68.1146 167.708 68.3125 166.656 68.3125C165.625 68.3125 164.693 68.099 163.859 67.6719C163.036 67.2448 162.328 66.6458 161.734 65.875C161.151 65.1042 160.703 64.1979 160.391 63.1562C160.078 62.1042 159.922 60.9635 159.922 59.7344ZM163.688 59.4062V59.7344C163.688 60.5052 163.76 61.224 163.906 61.8906C164.062 62.5573 164.297 63.1458 164.609 63.6562C164.932 64.1562 165.339 64.5521 165.828 64.8438C166.328 65.125 166.917 65.2656 167.594 65.2656C168.479 65.2656 169.203 65.0781 169.766 64.7031C170.339 64.3281 170.776 63.8229 171.078 63.1875C171.391 62.5417 171.609 61.8229 171.734 61.0312V58.2031C171.672 57.5885 171.542 57.0156 171.344 56.4844C171.156 55.9531 170.901 55.4896 170.578 55.0938C170.255 54.6875 169.849 54.375 169.359 54.1562C168.87 53.9271 168.292 53.8125 167.625 53.8125C166.948 53.8125 166.359 53.9583 165.859 54.25C165.359 54.5417 164.948 54.9427 164.625 55.4531C164.312 55.9635 164.078 56.5573 163.922 57.2344C163.766 57.9115 163.688 58.6354 163.688 59.4062ZM182.469 54.7031V68H178.703V51.0938H182.25L182.469 54.7031ZM181.797 58.9219L180.578 58.9062C180.589 57.7083 180.755 56.6094 181.078 55.6094C181.411 54.6094 181.87 53.75 182.453 53.0312C183.047 52.3125 183.755 51.7604 184.578 51.375C185.401 50.9792 186.318 50.7812 187.328 50.7812C188.141 50.7812 188.875 50.8958 189.531 51.125C190.198 51.3438 190.766 51.7031 191.234 52.2031C191.714 52.7031 192.078 53.3542 192.328 54.1562C192.578 54.9479 192.703 55.9219 192.703 57.0781V68H188.922V57.0625C188.922 56.25 188.802 55.6094 188.562 55.1406C188.333 54.6615 187.995 54.3229 187.547 54.125C187.109 53.9167 186.562 53.8125 185.906 53.8125C185.26 53.8125 184.682 53.9479 184.172 54.2188C183.661 54.4896 183.229 54.8594 182.875 55.3281C182.531 55.7969 182.266 56.3385 182.078 56.9531C181.891 57.5677 181.797 58.224 181.797 58.9219Z" fill="#F5BC0B"/>
</g>
<g clip-path="url(#clip0_13_231)">
<path d="M45.2076 22.5C45.2076 26.9501 43.8819 31.3002 41.3981 35.0003C38.9144 38.7004 35.3842 41.5843 31.2539 43.2873C27.1236 44.9903 22.5787 45.4358 18.194 44.5677C13.8093 43.6995 9.78167 41.5566 6.62048 38.4099C3.45928 35.2632 1.30648 31.2541 0.434305 26.8895C-0.437867 22.525 0.00976411 18.001 1.72059 13.8896C3.43142 9.77828 6.3286 6.26426 10.0458 3.79193C13.7629 1.3196 18.1332 0 22.6038 0C28.5975 0.00370886 34.3447 2.37543 38.5829 6.59419C42.8212 10.813 45.2038 16.5338 45.2076 22.5Z" fill="#FFCD33"/>
<path d="M23.6526 10.929C23.6565 11.4789 23.5505 12.024 23.3409 12.5328C23.1313 13.0415 22.8222 13.5038 22.4316 13.8926C22.041 14.2814 21.5766 14.5891 21.0655 14.7977C20.5544 15.0064 20.0067 15.1118 19.4543 15.108H-7.10462C-7.66134 15.1166 -8.21422 15.0148 -8.73106 14.8087C-9.24791 14.6025 -9.71839 14.2961 -10.1151 13.9073C-10.5119 13.5184 -10.827 13.0549 -11.042 12.5436C-11.2571 12.0324 -11.3678 11.4837 -11.3678 10.9295C-11.3678 10.3753 -11.2571 9.82656 -11.042 9.31533C-10.827 8.80411 -10.5119 8.34058 -10.1151 7.95172C-9.71839 7.56286 -9.24791 7.25645 -8.73106 7.0503C-8.21422 6.84416 -7.66134 6.74242 -7.10462 6.75099H19.4553C20.5667 6.75677 21.631 7.1988 22.4168 7.98108C23.2027 8.76335 23.6468 9.82269 23.6526 10.929ZM16.3872 22.179C16.3911 22.7289 16.2852 23.274 16.0756 23.7828C15.866 24.2915 15.5569 24.7538 15.1662 25.1426C14.7756 25.5314 14.3113 25.8391 13.8002 26.0477C13.289 26.2564 12.7414 26.3618 12.189 26.358H-14.2886C-14.8453 26.3666 -15.3982 26.2648 -15.915 26.0587C-16.4319 25.8525 -16.9024 25.5461 -17.2991 25.1573C-17.6959 24.7684 -18.0109 24.3049 -18.226 23.7936C-18.4411 23.2824 -18.5518 22.7337 -18.5518 22.1795C-18.5518 21.6253 -18.4411 21.0766 -18.226 20.5653C-18.0109 20.0541 -17.6959 19.5906 -17.2991 19.2017C-16.9024 18.8129 -16.4319 18.5064 -15.915 18.3003C-15.3982 18.0942 -14.8453 17.9924 -14.2886 18.001H12.2703C12.8165 18.0056 13.3563 18.1173 13.859 18.3299C14.3616 18.5425 14.8172 18.8517 15.1996 19.2398C15.5821 19.6279 15.8838 20.0872 16.0876 20.5916C16.2914 21.096 16.3932 21.6354 16.3872 22.179ZM23.6526 33.35C23.6565 33.8999 23.5505 34.445 23.3409 34.9538C23.1313 35.4625 22.8222 35.9248 22.4316 36.3136C22.041 36.7024 21.5766 37.0101 21.0655 37.2187C20.5544 37.4274 20.0067 37.5328 19.4543 37.529H-7.10462C-8.20669 37.512 -9.25785 37.0643 -10.0312 36.2825C-10.8045 35.5008 -11.238 34.4476 -11.238 33.3505C-11.238 32.2533 -10.8045 31.2002 -10.0312 30.4184C-9.25785 29.6367 -8.20669 29.189 -7.10462 29.172H19.4553C20.5623 29.1918 21.6184 29.6383 22.4013 30.4176C23.1842 31.1969 23.6327 32.2481 23.6526 33.35Z" fill="white"/>
<path d="M69.6679 25.714C69.5061 27.08 69.1033 27.482 67.73 27.482H57.1544V28.282C57.1544 31.014 58.7688 32.139 62.5632 32.139C64.2204 32.1415 65.8723 31.9529 67.4859 31.577C68.6964 31.256 69.0199 31.577 69.0199 32.863V33.345C69.0199 34.55 68.7778 34.872 67.4859 35.193C65.8764 35.5918 64.2217 35.7811 62.5632 35.756C56.186 35.756 53.1992 33.345 53.1992 27.64V24.345C53.1992 18.8783 56.0249 16.145 61.6762 16.145C67.0006 16.145 69.7492 18.797 69.7492 23.94C69.7482 24.589 69.6679 25.152 69.6679 25.714ZM57.1554 24.268H66.0352V23.3C66.0352 20.809 64.5825 19.523 61.5948 19.523C58.6885 19.523 57.2358 20.728 57.2358 23.3L57.1554 24.268ZM88.9625 27.723C88.9625 33.107 85.7336 35.839 80.3228 35.839C74.5101 35.839 71.6038 33.187 71.6038 27.723V24.509C71.6038 19.045 74.268 16.232 79.5955 16.232C82.2597 16.232 84.1162 17.032 85.166 18.723V10.687C85.166 9.321 85.4885 9 86.8618 9H87.346C88.7183 9 89.0418 9.321 89.0418 10.688L88.9625 27.723ZM75.4806 27.643C75.4806 30.857 76.449 32.143 80.2434 32.143C84.0378 32.143 85.0867 30.777 85.0867 27.643V24.429C85.0867 21.215 83.9565 19.929 80.2434 19.929C76.5304 19.929 75.4806 21.295 75.4806 24.429V27.643ZM95.178 28.443C95.178 31.014 96.1464 32.143 99.537 32.143C102.928 32.143 103.816 31.018 103.816 28.443V18.321C103.816 16.955 104.138 16.633 105.511 16.633H105.996C107.368 16.633 107.691 16.954 107.691 18.321V28.446C107.691 33.346 105.189 35.839 99.4536 35.839C93.9644 35.839 91.1385 33.348 91.1385 28.446V18.321C91.1385 16.955 91.4609 16.633 92.8342 16.633H93.3185C94.6908 16.633 95.0142 16.954 95.0142 18.321L95.176 28.446L95.178 28.443ZM110.597 18.157C110.597 16.952 110.919 16.63 112.131 16.63H120.85C124.079 16.63 125.209 17.675 125.209 20.487C125.209 22.496 124.644 23.541 122.303 24.987L113.827 30.13C113.262 30.451 113.023 30.773 113.023 31.175C113.023 31.657 113.425 31.818 114.233 31.818H123.677C124.887 31.818 125.211 32.139 125.211 33.345V33.827C125.211 35.032 124.888 35.354 123.677 35.354H113.832C110.926 35.354 109.473 34.0683 109.473 31.497C109.491 30.5526 109.772 29.6318 110.285 28.8372C110.799 28.0427 111.523 27.4056 112.379 26.997L120.775 21.854C121.34 21.454 121.663 21.131 121.663 20.809C121.663 20.409 121.261 20.166 120.452 20.166H112.049C110.839 20.166 110.515 19.845 110.515 18.639L110.597 18.157ZM127.388 18.157C127.388 16.952 127.71 16.63 128.922 16.63H137.641C140.87 16.63 142 17.675 142 20.487C142 22.496 141.435 23.541 139.094 24.987L130.618 30.13C130.053 30.451 129.814 30.773 129.814 31.175C129.814 31.657 130.216 31.818 131.025 31.818H140.468C141.679 31.818 142.002 32.139 142.002 33.345V33.827C142.002 35.032 141.68 35.354 140.468 35.354H130.623C127.717 35.354 126.264 34.0683 126.264 31.497C126.282 30.5526 126.563 29.6318 127.077 28.8372C127.59 28.0427 128.315 27.4056 129.17 26.997L137.566 21.854C138.13 21.454 138.454 21.131 138.454 20.809C138.454 20.409 138.052 20.166 137.243 20.166H128.848C127.637 20.166 127.314 19.845 127.314 18.639L127.394 18.157H127.388Z" fill="#242424"/>
</g>
<defs>
<filter id="filter0_d_13_231" x="52.6094" y="44.6562" width="142.094" height="34.0156" filterUnits="userSpaceOnUse" color-interpolation-filters="sRGB">
<feFlood flood-opacity="0" result="BackgroundImageFix"/>
<feColorMatrix in="SourceAlpha" type="matrix" values="0 0 0 0 0 0 0 0 0 0 0 0 0 0 0 0 0 0 127 0" result="hardAlpha"/>
<feOffset dy="2"/>
<feGaussianBlur stdDeviation="1"/>
<feComposite in2="hardAlpha" operator="out"/>
<feColorMatrix type="matrix" values="0 0 0 0 0 0 0 0 0 0 0 0 0 0 0 0 0 0 0.2 0"/>
<feBlend mode="normal" in2="BackgroundImageFix" result="effect1_dropShadow_13_231"/>
<feBlend mode="normal" in="SourceGraphic" in2="effect1_dropShadow_13_231" result="shape"/>
</filter>
<clipPath id="clip0_13_231">
<rect width="142" height="45" fill="white"/>
</clipPath>
</defs>
</svg>
